<?xml version="1.0" encoding="UTF-8" standalone="no"?>
<!-- Created with Inkscape (http://www.inkscape.org/) -->

<svg
   xmlns:dc="http://purl.org/dc/elements/1.1/"
   xmlns:cc="http://creativecommons.org/ns#"
   xmlns:rdf="http://www.w3.org/1999/02/22-rdf-syntax-ns#"
   xmlns:svg="http://www.w3.org/2000/svg"
   xmlns="http://www.w3.org/2000/svg"
   xmlns:xlink="http://www.w3.org/1999/xlink"
   xmlns:sodipodi="http://sodipodi.sourceforge.net/DTD/sodipodi-0.dtd"
   xmlns:inkscape="http://www.inkscape.org/namespaces/inkscape"
   width="210mm"
   height="297mm"
   viewBox="0 0 744.09448819 1052.3622047"
   id="svg2"
   version="1.1"
   inkscape:version="0.91 r13725"
   sodipodi:docname="happyride_logo_trace.svg">
  <defs
     id="defs4" />
  <sodipodi:namedview
     id="base"
     pagecolor="#eaeaea"
     bordercolor="#666666"
     borderopacity="1.0"
     inkscape:pageopacity="0"
     inkscape:pageshadow="2"
     inkscape:zoom="1.28"
     inkscape:cx="220.42583"
     inkscape:cy="471.83711"
     inkscape:document-units="px"
     inkscape:current-layer="layer2"
     showgrid="false"
     inkscape:window-width="1920"
     inkscape:window-height="1017"
     inkscape:window-x="-8"
     inkscape:window-y="-8"
     inkscape:window-maximized="1"
     inkscape:snap-others="true" />
  <metadata
     id="metadata7">
    <rdf:RDF>
      <cc:Work
         rdf:about="">
        <dc:format>image/svg+xml</dc:format>
        <dc:type
           rdf:resource="http://purl.org/dc/dcmitype/StillImage" />
        <dc:title />
      </cc:Work>
    </rdf:RDF>
  </metadata>
  <g
     inkscape:groupmode="layer"
     id="layer3"
     inkscape:label="png"
     style="display:none">
    <image
       sodipodi:absref="C:\Users\Adrian\Dropbox\Sony\news_250x145.jpg"
       xlink:href="news_250x145.jpg"
       width="735.35712"
       height="426.50714"
       preserveAspectRatio="none"
       style="image-rendering:optimizeQuality"
       id="image4027"
       x="6.7136555"
       y="250.58438" />
  </g>
  <g
     inkscape:groupmode="layer"
     id="layer2"
     inkscape:label="teeth"
     style="display:inline">
    <g
       style="display:inline"
       id="g4515"
       transform="translate(2,0)" />
    <path
       style="display:inline;fill:#ffffff"
       d="M 371.39453 300.37891 C 370.28688 300.38206 369.17701 300.51529 368.92773 300.67383 C 368.1304 301.18081 366.84671 304.65809 366.09766 308.33789 C 365.21363 312.68005 364.55507 314.13733 362.76953 315.70508 C 359.51576 318.56187 355.95476 319.11494 352.06055 317.36719 C 349.36511 316.15758 348.30153 314.93511 346.49023 310.9668 C 345.7968 309.44782 344.5069 307.29354 343.625 306.17969 L 342.02148 304.1543 L 340.23242 304.40625 C 337.29988 304.81933 336.88232 305.27186 336.39062 308.57812 C 336.15298 310.1755 335.95617 312.97895 335.95117 314.80859 C 335.94117 318.77185 335.27355 320.53991 333.02148 322.57031 C 330.83374 324.54261 328.46726 325.3561 325.66016 325.10156 C 322.53902 324.81855 320.50857 323.59479 318.20703 320.61328 C 315.47485 317.0737 312.36484 314.125 311.36719 314.125 C 310.90558 314.125 309.76167 314.51171 308.82422 314.98438 L 307.12109 315.84375 L 307.20898 319.08984 C 307.25774 320.87549 307.56468 323.51339 307.89062 324.95117 C 309.36787 331.46724 305.6807 337.05775 299.48438 337.69727 C 296.53996 338.00115 293.99763 337.02518 291.3457 334.57422 C 289.16659 332.56015 284.61577 329.4043 283.89062 329.4043 C 283.67886 329.4043 282.67257 329.93773 281.65625 330.58984 C 280.21066 331.5175 279.80859 331.99547 279.80859 332.78711 C 279.80859 334.15232 281.00142 338.20968 282.29492 341.24414 C 284.20971 345.73658 283.42622 349.925 280.11133 352.91992 C 278.04741 354.78446 276.47296 355.37944 273.61523 355.36914 C 271.15213 355.36052 268.99765 354.6349 266.80859 353.07617 C 265.52094 352.15925 260.498 350.0293 259.62305 350.0293 C 258.88836 350.0293 256.12695 352.66445 256.12695 353.36523 C 256.12695 354.0818 258.16573 358.06955 260.4375 361.79883 C 261.95778 364.29444 262.40617 365.41019 262.53906 367.01172 C 262.86953 370.99685 260.58826 375.07043 257.07422 376.77148 C 254.44431 378.04465 251.80447 377.91818 246.43359 376.25977 C 240.34393 374.37939 239.67115 374.40275 238.19336 376.55078 C 237.55304 377.48147 237.0293 378.4988 237.0293 378.8125 C 237.0293 379.59652 239.30069 382.5442 242.37109 385.74414 C 245.26837 388.76352 246.10922 390.16851 246.43164 392.52148 C 246.90784 395.9954 244.71434 400.47988 241.66016 402.27539 C 239.89633 403.30716 239.8794 403.31445 232.25391 403.31445 L 224.61523 403.31445 L 223.89258 405.59766 L 223.16992 407.88086 L 225.41016 409.91797 C 226.64308 411.0383 228.77417 412.69737 230.14453 413.60547 C 234.29502 416.35596 235.5 418.23883 235.5 421.9707 C 235.5 428.19462 232.01806 431.4499 224.57227 432.18164 C 220.30602 432.60102 217.23408 433.15769 216.43359 433.6582 C 215.88532 434.0008 215.21265 437.67708 215.53906 438.54688 C 215.82393 439.30627 219.78007 441.61931 223.07422 442.95312 C 227.13162 444.59593 229.0902 446.46109 229.98438 449.5332 C 230.54268 451.45142 230.58458 452.21864 230.24219 454.23242 C 229.52872 458.42941 226.89172 460.81664 221.30469 462.32422 C 219.60618 462.7826 217.20429 463.5961 215.9668 464.13281 C 213.43065 465.23274 213.09987 465.8474 213.52344 468.67188 C 213.76469 470.28047 213.91885 470.47759 215.45312 471.15625 C 216.37026 471.56202 219.06071 472.32332 221.43164 472.84766 C 226.05518 473.87042 227.93304 474.82104 229.49609 476.92578 C 231.69682 479.88906 231.97212 484.25387 230.15625 487.41992 C 228.83757 489.71923 227.35862 490.94733 224.26758 492.31445 C 222.02462 493.30638 217.7976 495.9956 217.35547 496.71094 C 217.22318 496.92494 217.31034 498.04703 217.55078 499.20508 C 218.18491 502.26008 218.68462 502.48729 225.49023 502.82031 C 231.55575 503.11711 233.30518 503.58365 235.26172 505.41797 C 238.03722 508.02035 239.0051 513.08366 237.37109 516.45898 C 236.92709 517.37627 235.61571 518.92477 234.4375 519.92188 C 233.26544 520.91387 231.02608 522.94259 229.46289 524.42969 L 226.62109 527.13477 L 227.38867 528.82227 C 228.76323 531.84607 228.9805 531.99697 231.8457 531.91797 C 233.25127 531.87936 235.62437 531.56892 237.12109 531.22852 C 243.74668 529.72158 248.66725 532.08374 250.26367 537.53906 C 251.34544 541.23568 250.49129 544.17971 247.33398 547.64062 C 244.88022 550.33051 242.375 553.97538 242.375 554.85742 C 242.375 555.25743 242.90071 556.34475 243.54102 557.27539 C 244.57121 558.77292 244.8699 558.96875 246.14648 558.96875 C 247.52081 558.96875 250.37314 558.10179 254.98047 556.28516 C 259.11945 554.65345 263.01238 555.42109 265.60938 558.37891 C 267.43086 560.45346 268.06709 561.96872 268.25781 564.69531 C 268.41938 567.00726 268.32977 567.36898 266.98438 569.85547 C 265.04671 573.4365 263.15692 577.30283 262.83789 578.33984 C 262.63523 578.99856 262.93039 579.56673 264.17578 580.91797 C 265.11314 581.93483 266.10838 582.65248 266.58398 582.64648 C 267.80901 582.64091 271.10116 580.99313 274.18555 578.8418 C 277.80398 576.31806 280.18642 575.76425 283.39258 576.69922 C 285.14746 577.21099 286.06989 577.7872 287.60742 579.33398 C 290.88537 582.63181 291.27052 585.5696 289.21875 591.64062 C 288.51113 593.73436 287.81595 596.24387 287.67383 597.21875 C 287.42443 598.92925 287.46446 599.03462 288.86328 600.19336 C 291.77267 602.60347 292.99845 602.18192 298.28125 596.96094 C 301.89818 593.38638 303.35955 592.57698 306.20898 592.58398 C 309.66306 592.58969 313.62535 594.73638 315.22656 597.46875 C 316.4203 599.50578 316.53104 601.34865 315.82422 607.50195 C 315.23184 612.65976 315.45111 613.53417 317.625 614.64062 C 320.83527 616.27475 321.65819 615.7931 325.63477 609.95117 C 328.96485 605.05887 330.427 603.94602 333.8125 603.73047 C 336.67591 603.5481 338.6509 604.04626 341.00781 605.54102 C 343.59059 607.17889 344.35787 608.93054 344.94336 614.5332 C 345.47591 619.63068 346.02503 622.07674 346.77734 622.70117 C 347.05228 622.9293 348.23054 623.22853 349.39453 623.36523 C 351.48059 623.61046 351.52452 623.59512 352.53711 622.26758 C 353.10209 621.52678 354.41422 618.97116 355.45117 616.58789 C 357.59869 611.65275 358.9791 610.11058 362.07422 609.19141 C 368.20641 607.37025 373.71971 610.69913 374.90234 616.93555 C 375.52457 620.21649 377.56803 625.0593 378.49219 625.44531 C 379.68509 625.94353 383.04153 625.47984 383.62109 624.73633 C 384.2396 623.94252 385.07428 621.14253 385.86133 617.2207 C 386.58307 613.62457 387.37264 611.93799 389.11523 610.26758 C 390.86962 608.58591 392.94462 607.80466 395.70508 607.78906 C 400.30889 607.76256 402.72036 609.61329 405.48828 615.29492 C 406.53268 617.43873 407.95234 619.84606 408.64258 620.64453 L 409.89648 622.0957 L 412.36719 621.56445 L 414.83594 621.03516 L 415.2832 619.31836 C 415.52884 618.37426 415.74267 615.69905 415.75977 613.37305 C 415.77951 610.65734 416.00028 608.52968 416.375 607.42969 C 417.7072 603.5201 421.23293 600.98633 425.33984 600.98633 C 428.50416 600.98633 430.81101 602.20048 433.42773 605.24805 C 436.6779 609.03317 439.21506 611.72099 439.875 612.07422 C 440.53294 612.42629 444.38174 610.86363 444.89258 610.03711 C 445.23288 609.48647 444.94925 606.06141 444.21875 601.91016 C 443.52491 597.96696 443.53354 596.4505 444.26367 594.70312 C 444.95337 593.05236 447.60649 590.06259 449.00391 589.35938 C 450.43997 588.63662 453.02369 588.32752 455.20703 588.61719 C 456.8753 588.83851 457.58994 589.2558 460.625 591.77734 C 462.54853 593.37537 465.01679 595.25685 466.10938 595.95703 L 468.0957 597.22852 L 470.23438 595.76562 C 472.37045 594.30282 472.37203 594.30025 472.16016 592.65039 C 471.96418 591.12395 471.5763 589.90856 469.26953 583.60742 C 467.44935 578.63522 469.53484 573.91017 474.52539 571.70312 C 477.5027 570.38648 479.57893 570.5124 482.82812 572.20508 C 487.45376 574.61472 489.65636 575.65448 491.17383 576.14648 C 492.63254 576.61939 492.65672 576.61119 494.32422 574.97461 C 495.2487 574.06737 496.00586 573.03781 496.00586 572.6875 C 496.00586 571.61711 494.26104 568.03258 492.21875 564.9043 C 489.18313 560.25391 488.89587 557.91463 490.83984 553.71875 C 491.53326 552.22224 492.22293 551.42893 493.58594 550.56445 C 497.13789 548.31195 499.9546 548.10894 504.32617 549.78906 C 507.88744 551.15783 511.01506 551.86125 512.20508 551.5625 C 513.01733 551.35868 514.64777 549.32747 515.20312 547.82617 C 515.53504 546.92935 513.71374 544.32191 509.93359 540.28125 C 506.36181 536.46348 505.75023 535.0707 506.01758 531.375 C 506.14732 529.58182 506.45413 528.77442 507.67969 527.00781 C 508.53936 525.76858 509.77423 524.53724 510.5625 524.13281 C 512.79518 522.98772 516.24896 522.53615 519.04688 523.02344 C 522.37249 523.60229 527.13102 523.57057 527.61914 522.9668 C 527.83146 522.70415 528.32567 521.57131 528.7168 520.44727 L 529.42773 518.40234 L 527.51953 516.66992 C 526.46955 515.71701 524.40669 514.12001 522.93555 513.12109 C 521.46452 512.12217 519.79694 510.81349 519.23047 510.21289 C 516.77508 507.61056 516.22325 503.27755 517.88477 499.64844 C 519.43398 496.26462 522.09404 494.68317 526.94531 494.26172 C 531.8822 493.83275 535.37811 493.17966 536.125 492.54492 C 536.64843 492.10034 536.87388 491.31932 536.95508 489.68359 L 537.06836 487.43359 L 534.77539 486.04102 C 533.51492 485.27501 531.32109 484.16136 529.90039 483.56641 C 526.58552 482.17836 524.55411 480.69256 523.22852 478.68945 C 522.29214 477.27453 522.16992 476.73758 522.16992 474.00781 C 522.16992 471.32288 522.31382 470.66717 523.27344 468.93555 C 524.69394 466.37202 526.48036 465.21605 530.8125 464.05664 C 532.72366 463.5452 535.38621 462.61264 536.72852 461.98438 L 539.16797 460.8418 L 539.16211 458.625 C 539.159 457.40605 539.02944 456.20857 538.87305 455.96289 C 538.41096 455.23635 534.97413 454.04221 531.31445 453.33594 C 524.31623 451.98541 521.20471 448.84349 521.22461 443.14844 C 521.23977 438.81216 523.48828 435.82732 528.43164 433.58594 C 530.99522 432.42355 533.77227 430.67316 534.99609 429.44922 C 535.62563 428.81966 535.63306 428.61981 535.09375 426.54883 C 534.77518 425.32496 534.45817 424.26466 534.38867 424.19336 C 533.96593 423.75965 530.25679 423.26094 525.77344 423.03516 C 520.74837 422.78182 520.5334 422.73578 518.60156 421.49609 C 515.89422 419.75871 514.67241 417.61836 514.42578 414.17188 C 514.10416 409.6766 515.29728 407.61134 520.32422 403.95508 C 521.808 402.87594 523.66292 401.2106 524.44531 400.25586 C 525.73598 398.68064 525.82948 398.41315 525.46484 397.36719 C 525.24378 396.73316 524.68566 395.68441 524.22461 395.03711 L 523.38672 393.86133 L 519.83594 394.12109 C 517.88255 394.26448 515.71736 394.55225 515.02539 394.75977 C 513.10219 395.33652 509.26317 395.20516 507.50586 394.50195 C 505.47045 393.68754 502.63684 390.54323 502.08203 388.48242 C 501.53 386.4326 501.79363 383.06224 502.64453 381.29102 C 503.01354 380.52282 504.23 378.88552 505.34766 377.65039 C 506.46535 376.4153 508.07441 374.30422 508.92383 372.96094 L 510.46875 370.51953 L 509.25391 368.82227 C 508.58526 367.88878 507.80202 367.03337 507.51367 366.92188 C 506.6077 366.57128 502.8252 367.46561 499.16406 368.89648 C 493.61402 371.06551 489.96783 370.67099 486.86328 367.56641 C 484.0367 364.73984 483.11053 359.88323 484.79297 356.71484 C 487.98221 350.70869 489.51172 347.48126 489.51172 346.76172 C 489.51172 346.26139 488.82568 345.29266 487.80273 344.34961 L 486.09375 342.77539 L 484.11914 343.55469 C 481.52892 344.57578 481.03674 344.84458 477.79102 347.02734 C 474.00356 349.57453 472.34583 349.97335 469.14648 349.10742 C 466.05909 348.27169 463.7821 346.42589 462.53516 343.74805 C 461.28412 341.06157 461.38116 339.03797 463 334.14844 C 463.75536 331.86756 464.46115 329.13538 464.56836 328.07812 L 464.76367 326.15625 L 462.5957 324.91992 L 460.42773 323.68164 L 458.06836 325.26758 C 456.77019 326.13994 454.41749 328.07573 452.8418 329.56836 C 449.86088 332.39237 448.17565 333.22266 445.42383 333.22266 C 441.4517 333.22266 438.34571 331.27076 436.58008 327.66211 C 435.65734 325.7759 435.57763 325.29172 435.80469 322.99219 C 436.3114 317.86025 436.51353 313.41028 436.28125 312.48438 C 436.03034 311.48474 433.76685 310.30469 432.09961 310.30469 C 431.0364 310.30469 427.96854 313.39145 425.80469 316.63672 C 423.76354 319.6979 421.96564 321.22119 419.54688 321.93945 C 415.58223 323.11687 412.98332 322.45012 410.0332 319.5 C 407.69155 317.15847 407.01669 315.43934 406.99219 311.75977 C 406.97645 309.36447 406.04534 303.84415 405.57812 303.37695 C 405.39851 303.1973 404.25546 302.86577 403.03711 302.64062 C 400.12476 302.10226 399.90582 302.31203 396.86719 308.60938 C 394.14232 314.25657 392.6793 315.91278 389.45898 316.98242 C 384.7569 318.5442 379.40533 315.9449 377.67578 311.25977 C 377.44316 310.62948 376.88165 308.70328 376.42969 306.97852 C 375.97777 305.25375 375.11466 303.06119 374.50977 302.10742 C 373.43095 300.40626 373.3699 300.37291 371.39453 300.37891 z M 378.1543 332.68555 C 385.21301 332.67018 392.31215 334.50982 398.74414 338.43164 C 412.77728 346.98814 421.48837 360.21989 417.28906 379.24805 C 415.55332 387.11313 413.98748 387.76157 412.98828 392.03125 C 416.93653 396.18183 419.08331 399.60414 423.03125 403.14844 L 431.12305 410.41406 L 439.23047 405.26172 C 463.0591 387.90378 498.79834 402.22136 504.25586 431.3125 C 506.12841 441.29393 501.46058 460.61368 496.42383 463.72656 C 494.89643 464.67053 485.15741 457.98865 474.78125 448.87891 L 455.91602 432.31641 L 446.95312 436.94922 L 437.99219 441.58398 L 413.66016 420.44922 C 400.27725 408.82511 386.66163 396.95747 383.4043 394.07617 C 377.62015 388.95979 376.8129 389.45293 348.80273 415.16992 C 333.02873 429.6525 319.35153 441.50195 318.41016 441.50195 C 317.46878 441.50195 312.85065 439.22803 308.14648 436.44922 L 299.5918 431.39648 L 280.70312 450.11719 L 261.81445 468.83984 L 255.72266 458.84766 C 233.5136 422.41809 276.76469 380.43527 311.92383 404.29492 L 322.11523 411.21094 L 331.12305 403.16211 C 335.45017 399.29583 338.81683 396.35276 341.47656 393.46289 C 340.49734 389.25834 338.75961 388.21768 337.10742 381.89844 C 334.22559 370.87614 334.97113 366.87043 339.64453 357.33203 C 347.28657 341.73468 362.62513 332.71935 378.1543 332.68555 z M 315.19531 350.31641 C 324.27603 350.31641 324.10517 363.8528 314.88867 374.58398 C 312.14391 377.77985 306.2991 379.73242 299.47266 379.73242 C 287.5546 379.73242 282.95499 374.35373 288.78516 367.23633 C 294.16607 360.66737 310.32275 350.31641 315.19531 350.31641 z M 438.67383 351.13281 C 447.92521 351.52489 467.27539 365.46843 467.27539 372.78711 C 467.27539 378.83195 457.81108 382.03669 447.91211 379.34375 C 435.0316 375.8397 426.34493 355.2352 436.16016 351.46875 C 436.86847 351.19694 437.71679 351.09225 438.67383 351.13281 z M 321.0293 381.78516 A 7.664927 7.664927 0 0 1 328.69336 389.44922 A 7.664927 7.664927 0 0 1 321.0293 397.11523 A 7.664927 7.664927 0 0 1 313.36523 389.44922 A 7.664927 7.664927 0 0 1 321.0293 381.78516 z M 434.06641 382.21289 A 7.664927 7.664927 0 0 1 441.73242 389.87695 A 7.664927 7.664927 0 0 1 434.06641 397.54297 A 7.664927 7.664927 0 0 1 426.40234 389.87695 A 7.664927 7.664927 0 0 1 434.06641 382.21289 z M 377.82617 409.27344 C 379.2977 409.34382 389.10549 417.30535 399.62109 426.96484 L 418.74023 444.52734 L 404.21094 438.2168 L 389.67969 431.9082 L 383.3125 439.89453 L 376.94336 447.88086 L 371.20312 440.00195 C 365.51635 432.19522 365.35992 432.16639 354.24023 436.8125 C 348.06723 439.39174 342.61427 441.50195 342.12305 441.50195 C 341.63184 441.50195 348.86297 434.22204 358.19141 425.32422 C 367.51986 416.4264 376.35466 409.20304 377.82617 409.27344 z M 455.75781 446.8125 L 470.21484 460.33398 C 478.16614 467.77152 484.22757 473.85742 483.68555 473.85742 C 483.14354 473.85742 478.15096 471.95752 472.5918 469.63477 C 463.08199 465.66131 461.97454 465.82734 453.84961 472.46875 C 444.05736 480.47302 440.82086 481.36125 440.75586 476.0625 C 440.63353 466.07702 435.96508 464.61329 424.95508 471.10938 C 404.02519 483.4583 411.36664 474.47927 433.45703 460.71094 L 455.75781 446.8125 z M 294.02734 453.3418 C 295.31799 453.24799 295.77836 454.62679 296.07812 456.99609 C 296.58596 461.00995 300.70023 466.14444 305.8418 469.18164 C 316.01629 475.19187 315.63104 478.19828 305.1875 474.28711 C 299.87715 472.29835 296.14976 473.05603 290.05273 477.36523 C 283.17607 482.22547 281.96484 482.38993 281.96484 478.46875 C 281.96484 475.93191 281.1765 473.85742 280.21289 473.85742 C 279.24929 473.85742 267.65582 480.85238 262.55273 484.33789 C 256.61108 488.39617 262.55339 484.33712 277.55273 468.29492 C 287.41937 457.74228 291.87626 453.49814 294.02734 453.3418 z M 288.33984 496.36133 C 313.19771 495.97728 406.67639 523.56236 450.40234 546.53516 C 466.40507 554.94271 469.64313 557.77673 466.95508 561.01562 C 461.83014 567.1908 464.50985 573.05557 430.50586 551.10742 C 398.10081 530.19132 351.195 512.90808 319.51367 504.7207 C 302.35886 500.2874 282.44777 496.45233 288.33984 496.36133 z M 272.63867 502.44336 C 273.6833 502.82539 288.43141 507.89931 299.18359 513.55469 C 321.84781 525.47552 361.03442 554.3671 386.38477 577.8457 L 404.0332 594.19141 L 392.26758 594.25195 C 377.87806 594.32606 378.73356 592.51117 350.62891 563.89648 C 334.19886 547.16826 310.59501 526.68475 298.17383 518.37695 C 285.75265 510.06915 272.63867 502.44336 272.63867 502.44336 z "
       id="rect3691" />
  </g>
</svg>
